<?xml version="1.0" ?><svg id="Layer_1" style="enable-background:new 0 0 468 468;" version="1.1" viewBox="0 0 468 468" xml:space="preserve" xmlns="http://www.w3.org/2000/svg" xmlns:xlink="http://www.w3.org/1999/xlink"><g><g><g><g><g style="opacity:0.5;"><g><g><ellipse cx="107.487" cy="411.595" rx="24.441" ry="24.392" style="fill:#FFCF00;"/></g></g></g><g><g><ellipse cx="107.487" cy="411.595" rx="14.664" ry="14.642" style="fill:#FFCF00;"/></g></g></g><g><g><path d="M160.54,409.34c-0.133,0-0.267-0.018-0.401-0.055l-12.482-3.443c-0.8-0.221-1.268-1.046-1.048-1.844       c0.222-0.799,1.05-1.266,1.847-1.046l12.482,3.443C162.572,406.847,162.232,409.34,160.54,409.34z"/></g><g><path d="M120.773,460.088c-0.523,0-1.031-0.274-1.308-0.761l-6.371-11.242c-0.409-0.721-0.154-1.635,0.568-2.043       c0.719-0.406,1.636-0.154,2.046,0.566l6.371,11.242C122.633,458.829,121.901,460.088,120.773,460.088z"/></g><g><path d="M152.675,444.076c-0.323,0-0.648-0.103-0.923-0.317l-16.325-12.716c-0.654-0.509-0.77-1.451-0.26-2.104       c0.51-0.652,1.452-0.769,2.107-0.26l16.325,12.716C154.699,442.252,154.077,444.076,152.675,444.076z"/></g></g><g><g><polygon points="127.177,367.889 38.225,344.126 87.798,159.671 176.749,183.434      " style="fill:#FC09B2;"/></g><g><path d="M75.648,261.622l26.378-98.15l-14.228-3.801L38.225,344.126l88.951,23.763l3.119-11.608h0       C89.046,345.261,64.566,302.857,75.648,261.622z" style="fill:#BD0A95;"/></g><g><g><g><polygon points="159.577,69.254 66.872,154.08 197.321,188.93        " style="fill:#FFCF00;"/></g></g><g><g><path d="M136.615,113.337l28.61-26.178l-5.647-17.905L66.872,154.08l130.45,34.849l-6.18-19.594         l-43.667-11.665C127.607,152.362,121.447,127.216,136.615,113.337z" style="fill:#FEAC01;"/></g></g></g><g><g><polygon points="54.983,281.771 38.24,344.07 143.131,308.524 159.874,246.225       " style="fill:#915EFD;"/></g><g><path d="M72.429,275.859L72.429,275.859l-17.445,5.912L38.24,344.07l104.891-35.546l4.239-15.774        l-41.82,14.172C86.063,313.526,67.088,295.73,72.429,275.859z" style="fill:#7E4CE8;"/></g><g><polygon points="176.618,183.925 71.727,219.471 54.983,281.771 159.874,246.225       " style="fill:#F5F5F5;"/></g><g><path d="M88.305,214.426l0.169-0.631l-16.748,5.676l-16.743,62.299l104.891-35.546l4.07-15.143        l-42.518,14.409C101.939,252.094,82.964,234.298,88.305,214.426z" style="fill:#E3D7FE;"/></g></g></g></g><g><g><g style="opacity:0.5;"><g><g><ellipse cx="360.513" cy="411.595" rx="24.441" ry="24.392" style="fill:#FFCF00;"/></g></g></g><g><g><ellipse cx="360.513" cy="411.595" rx="14.664" ry="14.642" style="fill:#FFCF00;"/></g></g></g><g><g><path d="M307.46,409.34c-1.688,0-2.036-2.492-0.399-2.944l12.482-3.443c0.797-0.22,1.625,0.247,1.847,1.046       c0.22,0.798-0.248,1.623-1.048,1.844l-12.482,3.443C307.727,409.323,307.593,409.34,307.46,409.34z"/></g><g><path d="M347.227,460.088c-1.127,0-1.861-1.259-1.306-2.237l6.371-11.242c0.411-0.721,1.326-0.972,2.046-0.566       c0.722,0.408,0.976,1.322,0.568,2.043l-6.371,11.242C348.258,459.814,347.75,460.088,347.227,460.088z"/></g><g><path d="M315.325,444.076c-1.397,0-2.028-1.821-0.925-2.68l16.325-12.716c0.655-0.51,1.597-0.392,2.107,0.26       c0.51,0.653,0.394,1.594-0.26,2.104l-16.325,12.716C315.973,443.973,315.648,444.076,315.325,444.076z"/></g></g><g><g><polygon points="340.823,367.889 429.775,344.126 380.202,159.671 291.251,183.434      " style="fill:#FC09B2;"/></g><g><path d="M392.352,261.622l-26.378-98.15l14.228-3.801l49.573,184.455l-88.951,23.763l-3.119-11.608h0       C378.954,345.261,403.434,302.857,392.352,261.622z" style="fill:#BD0A95;"/></g><g><g><g><polygon points="308.423,69.254 401.128,154.08 270.679,188.93        " style="fill:#FFCF00;"/></g></g><g><g><path d="M331.385,113.337l-28.61-26.178l5.647-17.905l92.705,84.827l-130.45,34.849l6.18-19.594         l43.667-11.665C340.393,152.362,346.553,127.216,331.385,113.337z" style="fill:#FEAC01;"/></g></g></g><g><g><polygon points="413.017,281.771 429.76,344.07 324.869,308.524 308.126,246.225       " style="fill:#915EFD;"/></g><g><path d="M395.571,275.859L395.571,275.859l17.445,5.912l16.743,62.299l-104.891-35.546l-4.239-15.774        l41.82,14.172C381.936,313.526,400.912,295.73,395.571,275.859z" style="fill:#7E4CE8;"/></g><g><polygon points="291.383,183.925 396.273,219.471 413.017,281.771 308.126,246.225       " style="fill:#F5F5F5;"/></g><g><path d="M379.695,214.426l-0.169-0.631l16.748,5.676l16.743,62.299l-104.891-35.546l-4.07-15.143        l42.518,14.409C366.061,252.094,385.036,234.298,379.695,214.426z" style="fill:#E3D7FE;"/></g></g></g></g></g><g><g><g><polygon points="57.61,0 49.169,0 53.389,51.251     " style="fill:#FD4CC8;"/></g><g><polygon points="3.703,57.011 3.703,65.437 33.939,61.224     " style="fill:#91D728;"/></g><g><polygon points="25.636,102.273 32.947,106.486 44.409,78.239     " style="fill:#91D728;"/></g><g><polygon points="75.868,105.942 83.178,101.728 64.405,77.695     " style="fill:#91D728;"/></g><g><polygon points="104.166,64.348 104.166,55.921 73.931,60.135     " style="fill:#91D728;"/></g><g><polygon points="82.233,19.086 74.923,14.873 63.46,43.119     " style="fill:#91D728;"/></g><g><polygon points="32.002,15.417 24.692,19.631 43.464,43.664     " style="fill:#91D728;"/></g><g><polygon points="4.221,27.584 0,34.882 46.57,56.859     " style="fill:#FD4CC8;"/></g><g><polygon points="1.455,87.534 5.676,94.832 48.026,65.558     " style="fill:#FD4CC8;"/></g><g><polygon points="52.079,119.9 60.521,119.9 56.3,68.649     " style="fill:#FD4CC8;"/></g><g><polygon points="105.469,92.316 109.689,85.018 63.119,63.041     " style="fill:#FD4CC8;"/></g><g><polygon points="108.234,32.366 104.013,25.068 61.663,54.342     " style="fill:#FD4CC8;"/></g></g><g><g><polygon points="415.921,0 407.479,0 411.7,51.251     " style="fill:#FD4CC8;"/></g><g><polygon points="362.014,57.011 362.014,65.437 392.249,61.224     " style="fill:#91D728;"/></g><g><polygon points="383.947,102.273 391.257,106.486 402.72,78.239     " style="fill:#91D728;"/></g><g><polygon points="434.179,105.942 441.489,101.728 422.716,77.695     " style="fill:#91D728;"/></g><g><polygon points="462.477,64.348 462.477,55.921 432.242,60.135     " style="fill:#91D728;"/></g><g><polygon points="440.544,19.086 433.234,14.873 421.771,43.119     " style="fill:#91D728;"/></g><g><polygon points="390.313,15.417 383.002,19.631 401.775,43.664     " style="fill:#91D728;"/></g><g><polygon points="362.531,27.584 358.311,34.882 404.881,56.859     " style="fill:#FD4CC8;"/></g><g><polygon points="359.766,87.534 363.987,94.832 406.337,65.558     " style="fill:#FD4CC8;"/></g><g><polygon points="410.39,119.9 418.831,119.9 414.611,68.649     " style="fill:#FD4CC8;"/></g><g><polygon points="463.779,92.316 468,85.018 421.43,63.041     " style="fill:#FD4CC8;"/></g><g><polygon points="466.545,32.366 462.324,25.068 419.974,54.342     " style="fill:#FD4CC8;"/></g></g></g><g><g><g><polygon points="181.065,327.841 185.311,320.09 189.557,327.841 197.321,332.08 189.557,336.319       185.311,344.07 181.065,336.319 173.301,332.08     " style="fill:#FE82D9;"/></g></g><g><g><polygon points="254.422,58.802 258.668,51.051 262.914,58.802 270.679,63.041 262.914,67.28       258.668,75.031 254.422,67.28 246.658,63.041     " style="fill:#915EFD;"/></g></g><g><g><ellipse cx="435.78" cy="197.874" rx="6.005" ry="5.995" style="fill:#FEC54E;"/></g></g><g><g><ellipse cx="33.939" cy="194.71" rx="6.005" ry="5.995" style="fill:#915EFD;"/></g></g></g><path d="M198.754,188.479L161.009,68.803c-0.324-1.023-1.648-1.383-2.446-0.655l-92.705,84.827   c-0.855,0.783-0.496,2.253,0.627,2.553l19.475,5.203L36.79,343.682c0,0.001,0,0.001,0,0.002l-0.014,0.054c0,0,0,0.001,0,0.001   L3.876,466.152c-0.499,1.865,2.396,2.645,2.901,0.777l32.511-120.968l41.574,11.106l-3.534,13.151   c-4.779,17.784,6.168,36.587,23.934,41.333l5.585,1.492c0.13,0.035,0.261,0.051,0.389,0.051c0.663,0,1.27-0.442,1.45-1.112   c0.214-0.8-0.261-1.621-1.062-1.835l-5.585-1.492c-16.169-4.319-26.164-21.458-21.809-37.66l3.535-13.153l43.026,11.494   c0.787,0.21,1.626-0.274,1.839-1.06l49.184-183.009l19.123,5.109C198.056,190.677,199.101,189.583,198.754,188.479z    M88.859,161.506l83.455,22.295l-98.409,33.35L88.859,161.506z M126.115,366.054l-82.801-22.121l97.639-33.088L126.115,366.054z    M141.889,307.363l-101.47,34.386l15.807-58.817l101.47-34.387L141.889,307.363z M158.632,245.063l-101.47,34.387l15.807-58.816   l101.47-34.387L158.632,245.063z M69.904,153.339l88.949-81.39l36.216,114.827L69.904,153.339z"/><path d="M271.06,190.378l19.123-5.109l49.184,183.009c0.212,0.786,1.052,1.269,1.839,1.06l43.026-11.494l3.535,13.153   c4.356,16.202-5.64,33.341-21.809,37.66l-5.585,1.492c-0.801,0.214-1.277,1.036-1.062,1.835c0.18,0.67,0.787,1.112,1.45,1.112   c0.128,0,0.259-0.017,0.389-0.051l5.585-1.492c17.766-4.746,28.713-23.548,23.934-41.333l-3.534-13.151l41.574-11.106   l32.511,120.968c0.505,1.868,3.4,1.088,2.901-0.777l-32.899-122.414c0,0,0-0.001,0-0.001l-0.014-0.054c0-0.001,0-0.001,0-0.002   l-49.168-182.951l19.475-5.203c1.122-0.3,1.482-1.77,0.627-2.553l-92.705-84.827c-0.798-0.728-2.123-0.369-2.446,0.655   L269.24,188.479C268.893,189.583,269.938,190.677,271.06,190.378z M394.089,217.15l-98.409-33.35l83.455-22.295L394.089,217.15z    M327.041,310.845l97.639,33.088l-82.801,22.121L327.041,310.845z M310.298,248.546l101.47,34.387l15.807,58.817l-101.47-34.386   L310.298,248.546z M293.555,186.246l101.47,34.387l15.807,58.816l-101.47-34.387L293.555,186.246z M272.925,186.776l36.216-114.827   l88.949,81.39L272.925,186.776z"/></g><g/><g/><g/><g/><g/><g/><g/><g/><g/><g/><g/><g/><g/><g/><g/></svg>